#!OML:ASF F:\VICON\USERDATA\INSTALL\rory3\rory3.ASF
:FULLY-SPECIFIED
:DEGREES
688
root 1.35363 17.9821 5.029 180.23 190.358 -178.894
lowerback 20.6398 -1.18198 -1.65783
upperback 0.923166 -1.46653 4.51977
thorax -10.4206 -0.487184 6.40732
lowerneck -11.2226 -1.37648 -2.55502
upperneck 9.52394 -1.39462 -0.390107
head 4.70841 -0.804056 0.191591
rclavicle -1.07344e-014 -7.95139e-015
rhumerus -54.2687 -9.16302 -68.1564
rradius 106.383
rwrist 35.5469
rhand -12.7706 0.506551
rfingers 7.12502
rthumb 13.3143 -29.0481
lclavicle -1.07344e-014 -7.95139e-015
lhumerus -51.3594 5.03835 84.2863
lradius 53.4843
lwrist 7.83744
lhand -13.3219 50.3314
lfingers 7.12502
lthumb 12.7829 79.92
rfemur -17.7194 1.26084 20.5912
rtibia 40.5196
rfoot -18.4756 -7.70941
rtoes 9.78903
lfemur -15.0083 -3.62713 -26.1268
ltibia 31.4112
lfoot -12.1195 9.73842
ltoes -2.84674
689
root 1.3677 17.9888 5.01695 180.417 191.26 -179.051
lowerback 20.7202 -1.25706 -1.82111
upperback 0.87054 -1.60365 4.52212
thorax -10.5033 -0.540613 6.55208
lowerneck -9.64352 -1.70249 -3.40457
upperneck 8.26417 -1.87121 0.575152
head 4.5369 -1.00532 0.677797
rclavicle 3.51849e-014 -1.27222e-014
rhumerus -54.2656 -8.609 -68.2403
rradius 108.17
rwrist 35.6761
rhand -13.2731 0.835432
rfingers 7.12502
rthumb 12.8299 -28.7503
lclavicle 3.51849e-014 -1.27222e-014
lhumerus -51.7616 5.3435 84.0612
lradius 53.1684
lwrist 8.07333
lhand -13.1508 50.8068
lfingers 7.12502
lthumb 12.9479 80.3851
rfemur -18.1339 1.57659 20.6701
rtibia 40.6122
rfoot -18.5706 -7.18789
rtoes 7.0383
lfemur -15.1349 -3.30147 -25.9681
ltibia 31.2612
lfoot -12.0676 10.2487
ltoes -2.58261
690
root 1.38585 17.994 5.0207 180.389 192.176 -178.848
lowerback 20.6924 -1.33236 -2.2213
upperback 0.883537 -1.81499 4.37875
thorax -10.4387 -0.628025 6.68095
lowerneck -10.3178 -1.81959 -3.06215
upperneck 8.79243 -2.09596 0.967334
head 4.36006 -1.07846 0.652298
rclavicle 7.95139e-015 7.95139e-015
rhumerus -54.3346 -7.85368 -68.4384
rradius 110.01
rwrist 35.8474
rhand -14.1605 0.801117
rfingers 7.12502
rthumb 11.9744 -28.8364
lclavicle 7.95139e-015 7.95139e-015
lhumerus -52.0255 5.44011 83.8712
lradius 52.5428
lwrist 8.46901
lhand -12.914 50.4777
lfingers 7.12502
lthumb 13.1761 80.0414
rfemur -18.2835 1.59354 20.3037
rtibia 40.7447
rfoot -18.8029 -6.43662
rtoes 3.13349
lfemur -14.9532 -2.97579 -26.2609
ltibia 31.0054
lfoot -12.1075 10.8212
ltoes -2.6547
691
root 1.40158 17.9992 5.01978 180.344 193.049 -178.737
lowerback 20.6543 -1.37171 -2.42803
upperback 0.975625 -1.93857 4.19512
thorax -10.2971 -0.689437 6.62118
lowerneck -10.5063 -2.08256 -2.95852
upperneck 8.68688 -2.50711 1.42324
head 4.37122 -1.24887 0.746382
rclavicle -3.08116e-014 3.02153e-014
rhumerus -54.299 -7.52321 -68.5292
rradius 111.903
rwrist 36.3248
rhand -14.6797 0.623927
rfingers 7.12502
rthumb 11.4737 -29.0421
lclavicle -3.08116e-014 3.02153e-014
lhumerus -51.9888 5.12634 83.8304
lradius 51.7745
lwrist 8.81414
lhand -12.7297 50.2087
lfingers 7.12502
lthumb 13.3538 79.7608
rfemur -18.3662 1.78371 20.0681
rtibia 40.8414
rfoot -19.2747 -5.84894
rtoes 0.900105
lfemur -14.8006 -2.66361 -26.4228
ltibia 30.8088
lfoot -12.1128 11.3506
ltoes -2.76748
692
root 1.41385 18.003 5.0096 180.325 193.832 -178.726
lowerback 20.8437 -1.37735 -2.53294
upperback 1.00428 -1.99552 3.98479
thorax -10.3661 -0.715332 6.47069
lowerneck -11.0643 -2.50775 -2.41883
upperneck 9.01207 -3.15854 1.50952
head 4.57023 -1.54298 0.632114
rclavicle 1.76918e-014 2.78299e-014
rhumerus -54.1424 -7.47364 -68.5569
rradius 113.508
rwrist 36.7351
rhand -15.0431 0.722059
rfingers 7.12502
rthumb 11.1232 -28.9631
lclavicle 1.76918e-014 2.78299e-014
lhumerus -51.9758 4.37648 83.8829
lradius 51.0811
lwrist 9.27734
lhand -12.8565 49.5125
lfingers 7.12502
lthumb 13.2316 79.0725
rfemur -18.4968 1.99086 19.9934
rtibia 40.9383
rfoot -19.8398 -5.49188
rtoes 0.0293324
lfemur -14.7238 -2.37377 -26.4302
ltibia 30.6319
lfoot -12.1315 11.7222
ltoes -1.90851
693
root 1.42806 18.0048 5.00281 180.364 194.696 -178.83
lowerback 21.0178 -1.40018 -2.67028
upperback 1.10499 -2.0744 3.87494
thorax -10.3382 -0.752629 6.4543
lowerneck -11.7663 -2.85976 -2.06854
upperneck 9.52619 -3.69527 1.63943
head 4.85161 -1.78067 0.563247
rclavicle 5.24792e-014 -2.38542e-015
rhumerus -53.6627 -7.23759 -68.6585
rradius 115.049
rwrist 36.747
rhand -15.1786 1.10671
rfingers 7.12502
rthumb 10.9925 -28.5855
lclavicle 5.24792e-014 -2.38542e-015
lhumerus -51.8116 3.99991 83.8676
lradius 50.5425
lwrist 9.79484
lhand -12.9188 49.7185
lfingers 7.12502
lthumb 13.1715 79.2825
rfemur -18.7012 2.16237 20.0413
rtibia 41.03
rfoot -20.3084 -5.38217
rtoes -1.94401
lfemur -14.7267 -2.12243 -26.3439
ltibia 30.5511
lfoot -12.1475 12.2795
ltoes -1.90576
694
root 1.44405 18.0079 5.00132 180.383 195.682 -178.884
lowerback 21.0714 -1.34695 -2.82793
upperback 1.03043 -2.05276 3.77866
thorax -10.4525 -0.731823 6.43825
lowerneck -11.1437 -3.24021 -2.26102
upperneck 9.51931 -4.24246 2.0892
head 4.77087 -2.03129 0.700618
rclavicle 6.65929e-014 -3.4191e-014
rhumerus -53.6314 -6.8686 -68.4935
rradius 116.56
rwrist 36.5634
rhand -15.6657 0.644775
rfingers 7.12502
rthumb 10.5226 -29.0718
lclavicle 6.65929e-014 -3.4191e-014
lhumerus -52.1874 3.60323 83.8678
lradius 50.2945
lwrist 10.2869
lhand -12.4674 50.6244
lfingers 7.12502
lthumb 13.6066 80.1597
rfemur -18.8462 2.38729 20.0179
rtibia 41.1464
rfoot -20.8294 -5.25176
rtoes -4.55739
lfemur -14.6937 -1.86148 -26.3339
ltibia 30.518
lfoot -12.1968 12.9573
ltoes -2.14239
695
root 1.46238 18.0091 5.00265 180.421 196.633 -178.934
lowerback 20.9721 -1.47256 -3.03001
upperback 0.946939 -2.26578 3.78135
thorax -10.4561 -0.821234 6.61825
lowerneck -10.3291 -3.47655 -2.86512
upperneck 9.2605 -4.56682 2.8264
head 4.59491 -2.17448 1.01586
rclavicle -7.97127e-014 -1.98785e-014
rhumerus -53.4398 -5.67431 -68.4531
rradius 118.055
rwrist 36.2606
rhand -16.0742 -0.41777
rfingers 7.12502
rthumb 10.1286 -30.154
lclavicle -7.97127e-014 -1.98785e-014
lhumerus -52.5988 3.78446 83.8339
lradius 49.9196
lwrist 10.4667
lhand -12.1774 50.8048
lfingers 7.12502
lthumb 13.8861 80.3212
rfemur -18.9499 2.51816 19.9958
rtibia 41.3174
rfoot -21.2818 -5.47639
rtoes -8.4186
lfemur -14.6753 -1.51752 -26.3364
ltibia 30.4921
lfoot -12.3811 13.4858
ltoes -1.58645
696
root 1.47823 18.0141 5.00157 180.361 197.549 -178.927
lowerback 21.0213 -1.74334 -3.38558
upperback 0.862618 -2.70167 3.85898
thorax -10.4998 -1.00429 7.04539
lowerneck -9.93567 -3.63379 -3.77678
upperneck 9.35475 -4.75456 3.65647
head 4.60667 -2.25292 1.41005
rclavicle 3.97569e-014 2.38542e-015
rhumerus -52.9723 -3.84793 -68.5737
rradius 119.411
rwrist 35.9472
rhand -16.5393 -1.1066
rfingers 7.12502
rthumb 9.67986 -30.8642
lclavicle 3.97569e-014 2.38542e-015
lhumerus -53.0284 4.42178 83.7444
lradius 49.5208
lwrist 10.5032
lhand -11.7768 50.7597
lfingers 7.12502
lthumb 14.272 80.2493
rfemur -19.0175 2.56893 19.9539
rtibia 41.5484
rfoot -21.5279 -5.87205
rtoes -12.406
lfemur -14.5178 -1.05452 -26.394
ltibia 30.4263
lfoot -12.6906 13.8844
ltoes 0.154029
